<svg width="65" height="65" viewBox="0 0 65 65" fill="none" xmlns="http://www.w3.org/2000/svg">
<path d="M30.3034 0.0287361C28.0458 0.175068 26.1518 0.476093 24.0112 1.03215C20.3069 1.99376 16.6988 3.69121 13.5589 5.94054C9.23588 9.03442 5.81172 13.0523 3.43279 17.8185C-0.0708066 24.8215 -0.927891 32.9158 1.02459 40.5417C2.25796 45.3665 4.57836 49.8526 7.80601 53.6489C8.39552 54.3429 9.50764 55.5261 10.001 55.986L10.44 56.3916L10.7912 55.9609C10.9877 55.7226 11.5939 54.9743 12.1416 54.2969C12.6893 53.6196 13.7889 52.2608 14.5916 51.2783C15.641 49.9906 16.0466 49.4638 16.0466 49.3886C16.0466 49.33 15.9713 48.6653 15.8793 47.9127C15.7874 47.1601 15.6285 45.8557 15.524 45.0153C15.4194 44.175 15.2522 42.7744 15.1477 41.9005C14.9386 40.132 14.7129 38.2506 14.4578 36.1518C14.3658 35.3825 14.1944 33.961 14.0815 32.9952C13.9645 32.0294 13.8432 31.0218 13.8098 30.7584C13.7763 30.495 13.5882 28.9397 13.3917 27.3092C13.1952 25.6744 12.9485 23.6425 12.8482 22.7938C12.4803 19.7543 12.4552 19.5369 12.4677 19.5243C12.4761 19.516 12.8398 19.9382 13.2788 20.4608C16.5692 24.3993 18.091 26.218 18.9774 27.2715C22.5688 31.557 25.3073 34.8306 26.1184 35.8048C26.4068 36.1518 26.6577 36.4403 26.6702 36.4403C26.6828 36.4445 27.4228 35.5456 28.3175 34.446C29.9355 32.4642 30.7215 31.5026 33.3764 28.2499C34.1373 27.3175 35.3874 25.7831 36.1567 24.8424C36.9218 23.8975 37.6284 23.0321 37.7245 22.9192C37.8207 22.8022 38.0214 22.5597 38.1677 22.3757C38.3182 22.1917 39.5725 20.649 40.9647 18.9474C42.3528 17.2457 44.1088 15.0926 44.8697 14.1602C46.0822 12.6718 48.7998 9.34798 50.6184 7.12374C50.9529 6.71401 51.233 6.36282 51.2414 6.34609C51.2456 6.32937 51.0115 6.14541 50.7188 5.93636C46.9978 3.30657 42.9716 1.55059 38.5607 0.639149C37.3023 0.379932 36.4285 0.246143 35.007 0.108173C34.0119 0.0120125 31.2943 -0.0339775 30.3034 0.0287361ZM33.8363 4.19292C37.2646 4.44378 40.5843 5.31341 43.72 6.78091C44.669 7.22408 45.1958 7.51257 45.154 7.5711C45.1247 7.60455 32.9123 22.6475 30.5836 25.5114C30.3787 25.7622 29.785 26.4939 29.2666 27.1294C28.4179 28.183 28.2548 28.3628 28.2548 28.2582C28.2548 28.2415 28.2255 27.9907 28.1921 27.7064C28.1545 27.4179 28.0416 26.4395 27.9412 25.5323C27.8409 24.625 27.682 23.2119 27.59 22.3966C27.4981 21.5813 27.289 19.7375 27.126 18.2993C26.9671 16.8611 26.7957 15.3559 26.7497 14.9546C26.6995 14.5532 26.5615 13.3115 26.4361 12.1952C26.3107 11.0789 26.1016 9.24346 25.9762 8.1188C25.6041 4.83678 25.6041 4.83678 25.6459 4.79915C25.6877 4.76152 26.5365 4.58593 27.2723 4.46468C29.3836 4.11766 31.5912 4.02568 33.8363 4.19292ZM21.7075 6.16213C21.741 6.38372 21.8455 7.2868 22.251 10.8782C22.8113 15.8117 23.1123 18.4582 23.1541 18.8428C23.2126 19.3487 23.4426 21.3639 23.7603 24.1526C23.9067 25.4738 24.0405 26.6277 24.0572 26.7113C24.0697 26.8033 24.0655 26.8702 24.0405 26.8702C24.0196 26.8702 23.8607 26.7071 23.6934 26.5023C23.1457 25.8459 21.695 24.115 20.6038 22.8147C20.0142 22.1123 18.9983 20.8998 18.3461 20.118C17.6938 19.3362 16.9037 18.3955 16.5943 18.0276C16.2849 17.6596 15.3233 16.5099 14.4578 15.4772C13.5924 14.4403 12.6642 13.3324 12.3966 13.0105L11.9075 12.4293L12.2712 12.0572C14.1735 10.134 16.774 8.29021 19.4247 6.98159C20.2526 6.57186 21.5236 6.0158 21.6364 6.00744C21.6615 6.00744 21.695 6.07851 21.7075 6.16213ZM8.37461 18.6129C8.67146 21.0963 8.81779 22.3172 8.93904 23.2955C9.05192 24.1902 9.21498 25.5365 9.94245 31.5528C10.0553 32.4851 10.2058 33.7269 10.2769 34.3122C10.348 34.8975 10.4902 36.064 10.5905 36.9044C10.6908 37.7447 10.8623 39.137 10.9668 39.9982C11.0713 40.8595 11.2594 42.4106 11.3849 43.4475C11.8197 47.0472 11.9451 48.0883 11.9702 48.2388C11.9911 48.3851 11.9576 48.4311 11.1716 49.4011C10.4609 50.2833 10.3438 50.4045 10.2895 50.3585C10.2518 50.3293 9.96754 49.9655 9.65815 49.5516C7.11616 46.1567 5.36019 42.3019 4.49056 38.2004C3.78398 34.8641 3.66692 31.3939 4.15609 28.1119C4.54491 25.4821 5.2473 23.0488 6.30089 20.6615C6.65208 19.8755 7.38374 18.454 7.81019 17.7349C8.14885 17.1705 8.16139 17.1537 8.19484 17.275C8.21156 17.3419 8.291 17.9439 8.37461 18.6129Z" fill="white"/>
<path d="M53.4958 8.3567C53.3954 8.47794 52.668 9.37684 51.8778 10.3552C51.0834 11.3335 49.8375 12.8637 49.1058 13.7584C48.37 14.6531 47.7094 15.4601 47.6383 15.5604L47.5045 15.736L47.8306 18.533C48.0104 20.0716 48.232 21.9865 48.324 22.7934C48.416 23.5961 48.5247 24.5075 48.5581 24.8128C48.5999 25.1472 48.6125 25.4023 48.5916 25.4441C48.5205 25.5862 41.2039 34.4372 41.1579 34.433C41.1328 34.433 40.6813 33.9146 40.1503 33.2791C37.993 30.6869 36.6426 29.1066 36.5966 29.1066C36.5673 29.1066 35.8231 29.9887 34.9367 31.0716C31.5753 35.1856 15.1736 55.2205 14.0197 56.6295C13.3507 57.4406 12.803 58.1221 12.7947 58.1388C12.7863 58.1597 13.0246 58.352 13.3173 58.5694C17.8159 61.8932 23.0379 63.9753 28.5483 64.6443C29.8277 64.799 30.3628 64.8324 31.7885 64.8617C34.1633 64.9077 36.3666 64.7154 38.6243 64.2638C47.3122 62.5329 54.8838 57.2775 59.5999 49.7184C64.2992 42.1886 65.7124 33.0032 63.5174 24.3445C62.1586 19.0013 59.4828 14.1222 55.674 10.0332C55.0218 9.33503 53.7884 8.13929 53.7174 8.13929C53.6965 8.13929 53.6003 8.23963 53.4958 8.3567ZM54.1689 14.8371C55.6364 16.6893 56.9492 18.855 57.9066 21.0123C60.2061 26.1925 60.9378 31.8534 60.0263 37.4057C59.5497 40.3072 58.6216 43.1293 57.2962 45.7048C56.7318 46.796 56.5311 47.1388 55.582 48.6189C55.5068 48.7401 55.4859 48.7067 55.4566 48.4098C55.4273 48.113 55.0427 44.7933 54.8671 43.3216C54.7626 42.4478 54.3529 38.961 53.801 34.2282C53.3285 30.1936 53.0693 27.9526 52.693 24.7375C52.4965 23.0693 52.2122 20.6611 52.0659 19.3859C51.9154 18.1108 51.7816 16.9986 51.7691 16.915C51.7482 16.7687 51.7816 16.7269 52.7348 15.5688C53.2784 14.9082 53.7383 14.3688 53.7592 14.3688C53.7759 14.3688 53.9599 14.5821 54.1689 14.8371ZM49.2856 30.9503C49.2856 30.9671 49.6912 34.4121 50.1845 38.6139C50.6778 42.8116 51.0834 46.265 51.0834 46.2859C51.0834 46.3068 51.0541 46.2985 51.0207 46.2692C50.9621 46.2232 43.9759 37.8697 43.7961 37.6356C43.725 37.5394 43.725 37.5353 43.9466 37.2719C44.072 37.1297 45.1298 35.8504 46.2963 34.4372C49.1184 31.0214 49.202 30.9252 49.248 30.9252C49.2689 30.9252 49.2856 30.9378 49.2856 30.9503ZM43.9926 44.3794C48.0982 49.3087 51.468 53.3558 51.4806 53.3767C51.4889 53.3935 51.2883 53.5941 51.029 53.8241C48.6919 55.8895 46.0956 57.5326 43.3445 58.6781C40.5851 59.8321 37.9595 60.4801 34.8406 60.7811C33.9501 60.8647 31.6255 60.8773 30.6179 60.802C26.5499 60.4968 22.7954 59.4265 19.3294 57.5911C19.0786 57.4531 18.8068 57.3151 18.7357 57.2775C18.6605 57.2399 18.5978 57.1855 18.5978 57.1605C18.5978 57.1354 19.1873 56.3995 19.9064 55.5257C22.5153 52.344 24.8608 49.4927 27.131 46.7291C30.1705 43.029 30.0284 43.2004 33.4609 39.0195C35.0956 37.0294 36.4502 35.4072 36.4795 35.4114C36.5046 35.4155 39.8869 39.4543 43.9926 44.3794Z" fill="white"/>
</svg>
