<svg width="21" height="21" viewBox="0 0 21 21" fill="none" xmlns="http://www.w3.org/2000/svg">
<g opacity="0.5">
<rect x="0.6" y="0.6" width="19.8" height="19.8" rx="9.9" stroke="white" stroke-width="1.2"/>
<path d="M9.52713 13.06V10.548C10.4445 10.5053 11.1645 10.308 11.6871 9.956C12.2098 9.59333 12.4711 9.04933 12.4711 8.324V8.1C12.4711 7.50267 12.2898 7.05467 11.9271 6.756C11.5751 6.45733 11.0898 6.308 10.4711 6.308C9.83113 6.308 9.31913 6.484 8.93513 6.836C8.55113 7.188 8.28446 7.636 8.13513 8.18L6.93513 7.732C7.04179 7.38 7.19113 7.04933 7.38313 6.74C7.57513 6.42 7.81513 6.14267 8.10313 5.908C8.40179 5.67333 8.74846 5.48667 9.14313 5.348C9.54846 5.20933 10.0071 5.14 10.5191 5.14C11.0311 5.14 11.4898 5.21467 11.8951 5.364C12.3111 5.50267 12.6631 5.70533 12.9511 5.972C13.2391 6.228 13.4631 6.54267 13.6231 6.916C13.7831 7.28933 13.8631 7.70533 13.8631 8.164C13.8631 8.66533 13.7725 9.108 13.5911 9.492C13.4098 9.86533 13.1751 10.1853 12.8871 10.452C12.5991 10.7187 12.2685 10.9373 11.8951 11.108C11.5325 11.268 11.1645 11.38 10.7911 11.444V13.06H9.52713ZM10.2151 16.644C9.77779 16.644 9.46846 16.5533 9.28713 16.372C9.11646 16.1907 9.03113 15.9613 9.03113 15.684V15.396C9.03113 15.1187 9.11646 14.8893 9.28713 14.708C9.46846 14.5267 9.77779 14.436 10.2151 14.436C10.6525 14.436 10.9565 14.5267 11.1271 14.708C11.3085 14.8893 11.3991 15.1187 11.3991 15.396V15.684C11.3991 15.9613 11.3085 16.1907 11.1271 16.372C10.9565 16.5533 10.6525 16.644 10.2151 16.644Z" fill="white"/>
</g>
</svg>
